<?xml version="1.0" encoding="UTF-8"?>
<svg width="280.41mm" height="216.29mm" version="1.1" viewBox="0 0 280.41 216.29" xmlns="http://www.w3.org/2000/svg">
 <g transform="translate(25.976 -14.578)" fill-rule="evenodd">
  <path d="m38.334 107.06 78.74-43.859 77.013 45.241-20.721 30.736-38.679 10.015 3.1081 65.616-19.34 15.886-20.376-15.541 3.7988-64.926-43.169-14.159z" stroke="#000" stroke-width=".26458px"/>
  <g fill="#a00">
   <path d="m56.637 153.68 40.751 0.34535-4.4895 55.947z"/>
   <path d="m138.14 153.33h34.535l-30.045 58.364z"/>
   <g stroke-width=".84762">
    <path d="m46.176 159.77 40.634 62.524-68.502 8.1014z"/>
    <path d="m186.78 156.09 28.545 68.213-65.657-6.1206z"/>
    <path d="m206.69 107.02 47.745 25.547-63.524 13.079z"/>
    <path d="m22.514 14.578 86.856 32.658-77.035 46.501z"/>
    <path d="m23.936 107.73 15.746 39.769-65.657-19.632z"/>
    <path d="m213.09 22.4-11.987 73.902-76.205-50.167z"/>
   </g>
  </g>
 </g>
</svg>
