<?xml version="1.0" encoding="UTF-8"?>
<svg width="149.76mm" height="117.31mm" version="1.1" viewBox="0 0 149.76 117.31" xmlns="http://www.w3.org/2000/svg">
 <g transform="rotate(45.083 121.31 57.005)" fill="#e16730" fill-rule="evenodd">
  <path d="m145.89 60.446-21.956-29.002-19.068-7.372-33.924 2.7076z"/>
  <path d="m143.65 88.644-27.347-22.158-54.877-16.377 45.092 31.883 11.007 6.7605z"/>
  <path d="m39.905 65.683 18.242 27.481 25.736 15.505-5.3141-27.577z"/>
  <path d="m3.4148 110.76 62.417 22.324 29.113-9.1138-42.67-10.8z" fill="#e16730" fill-rule="evenodd"/>
 </g>
 <g fill-rule="evenodd" stroke="#000">
  <path d="m41.21 91.181 25.216 20.322-11.706-22.279-18.036-10.121z" stroke-width=".19373px"/>
  <path d="m105.92 104.78 17.346 12.246-7.771-17.516-15.344-15.92z" stroke-width=".19373px"/>
  <path d="m75.259 74.018 1.5279 33.032-17.44-36.865 11.829-17.567z" stroke-width=".2012px"/>
  <path d="m149.67 71.947-1.6832 41.032-10.051-33.877 3.8355-26.068z" stroke-width=".1631px"/>
 </g>
</svg>
